# xmcd CD database file
#
# Track frame offsets:
#	150
#	26416
#	50255
#	74325
#	92617
#	116206
#	137034
#	156464
#	181273
#	200854
#	222461
#	242410
#
# Disc length: 3361 seconds
#
# Revision: 1
# Processed by: cddbd v1.5.2PL0 Copyright (c) Steve Scherf et al.
# Submitted via: CDex 1.70beta2
#
DISCID=b00d1f0c
DTITLE=Jim Martinez and Friends - Music For Your Soul - Jazz Praise III
DYEAR=2003
DGENRE=Jazz
TTITLE0=Great Is The Lord
TTITLE1=They'll Know We Are Christians
TTITLE2=Oh, How He Loves You And Me
TTITLE3=What A Friend We Have In Jesus
TTITLE4=We Are God's People
TTITLE5=Blessed Assurance
TTITLE6=Lord, Be Glorified
TTITLE7=Jesus Loves Me
TTITLE8=May The Good Lord Bless And Keep You
TTITLE9=He's Got The Whole World In His Hands
TTITLE10=Joy To The World (ala 'Intermission Riff' by Stan Kenton)
TTITLE11=Studio Talk
EXTD=YEAR: 2003
EXTT0=
EXTT1=
EXTT2=
EXTT3=
EXTT4=
EXTT5=
EXTT6=
EXTT7=
EXTT8=
EXTT9=
EXTT10=
EXTT11=
PLAYORDER=
